<?xml version="1.0" encoding="utf-8"?>
<!-- Generator: Adobe Illustrator 19.1.0, SVG Export Plug-In . SVG Version: 6.00 Build 0)  -->
<!DOCTYPE svg PUBLIC "-//W3C//DTD SVG 1.1//EN" "http://www.w3.org/Graphics/SVG/1.1/DTD/svg11.dtd">
<svg version="1.1" xmlns="http://www.w3.org/2000/svg" xmlns:xlink="http://www.w3.org/1999/xlink" x="0px" y="0px"
	 viewBox="-172 -116 972 985" style="enable-background:new -172 -116 972 985;" xml:space="preserve">
<style type="text/css">
	.st0{opacity:0.18;fill:url(#path61810-3_2_);enable-background:new    ;}
	.st1{opacity:0.18;enable-background:new    ;}
	.st2{opacity:0.1;fill:url(#path61920_1_);enable-background:new    ;}
	.st3{opacity:0.1;fill:url(#path61920-5_1_);enable-background:new    ;}
	.st4{opacity:0.18;fill:url(#path62089_1_);enable-background:new    ;}
	.st5{opacity:0.18;fill:url(#path62089-4_1_);enable-background:new    ;}
	.st6{opacity:0.18;fill:url(#path61810-3_3_);enable-background:new    ;}
	.st7{display:none;}
	.st8{display:inline;opacity:0.25;fill:url(#path61667_2_);enable-background:new    ;}
	.st9{display:inline;opacity:0.2;fill:none;stroke:#000000;stroke-width:1.441;enable-background:new    ;}
	.st10{display:inline;opacity:0.2;}
	.st11{opacity:0.2;fill:none;stroke:#000000;stroke-width:1.441;enable-background:new    ;}
	.st12{display:inline;fill:#FFFFFF;}
	.st13{display:inline;opacity:0.25;fill:url(#SVGID_1_);enable-background:new    ;}
	.st14{display:inline;opacity:0.25;fill:url(#SVGID_2_);enable-background:new    ;}
	.st15{display:inline;fill:#C50A2B;}
	.st16{display:inline;fill:none;stroke:#FFFFFF;stroke-width:6;enable-background:new    ;}
	.st17{display:inline;fill:#8C101B;}
	.st18{display:inline;fill:#6F94AD;}
	.st19{display:inline;fill:#80A7C8;}
	.st20{display:inline;}
	.st21{fill:none;stroke:#7F0000;stroke-width:3;enable-background:new    ;}
</style>
<g id="SHADOWS">

		<radialGradient id="path61810-3_2_" cx="0.7601" cy="-451.2892" r="64.3292" gradientTransform="matrix(1.6839 -2.2295 1.5006 1.1332 1289.9088 736.194)" gradientUnits="userSpaceOnUse">
		<stop  offset="0" style="stop-color:#000000"/>
		<stop  offset="0.5" style="stop-color:#000000;stop-opacity:0.6087"/>
		<stop  offset="1" style="stop-color:#000000;stop-opacity:0"/>
	</radialGradient>
	<path id="path61810-3" class="st0" d="M660,102.7l8.5-11.7l-63.1,202.4
		C623.3,185.4,660,102.7,660,102.7z M697.3,118.7L684,160.1l-74.7,139.3l-0.7-2.3C613,287.5,697.3,118.7,697.3,118.7z M715.3,174.1
		l-14.7,30l-85.5,102.3L715.3,174.1z"/>
	<path id="path61714" class="st1" d="M600.9,292.5c0,0,0-125.3,19.9-209.5
		C614.2,105.7,600.9,292.5,600.9,292.5z"/>
	<path id="path61714-0" class="st1" d="M24.1,292.5c0,0,0-125.3-19.9-209.5
		C10.9,105.7,24.1,292.5,24.1,292.5z"/>

		<radialGradient id="path61920_1_" cx="-80.3561" cy="11.1833" r="132.6788" gradientTransform="matrix(1.4639 -0.5462 -0.3375 -0.9046 203.0565 -71.3588)" gradientUnits="userSpaceOnUse">
		<stop  offset="0" style="stop-color:#000000"/>
		<stop  offset="1" style="stop-color:#000000;stop-opacity:0"/>
	</radialGradient>
	<path id="path61920" class="st2" d="M199.9-95.5c-7,2.5-16.4,6.6-22.2,10.4
		c-11.2,7.1-34.4,18.5-54.8,27c-19.6,8.2-46.5,18-53.8,19.6c-3,0.6-7.1,2.3-9,3.5s-6,2.7-9.1,3.4c-3.2,0.6-9.6,3.1-15,6
		c-5.1,2.7-15.6,7.3-23.4,10.1c-29,10.6-39,17-51.4,32.6c21.2,35.9,85,46,149,22.3c68.6-25.6,111.5-80.7,95.6-123.1
		C204.4-88.1,202.4-92,199.9-95.5z"/>

		<radialGradient id="path61920-5_1_" cx="160.467" cy="-134.1716" r="132.6788" gradientTransform="matrix(-1.4639 -0.5462 0.3375 -0.9046 825.9436 -71.3588)" gradientUnits="userSpaceOnUse">
		<stop  offset="0" style="stop-color:#000000"/>
		<stop  offset="1" style="stop-color:#000000;stop-opacity:0"/>
	</radialGradient>
	<path id="path61920-5" class="st3" d="M428.4-96.7c-2.9,3.9-5.3,8.2-7,12.9
		c-15.9,42.4,27,97.6,95.6,123.1c63.9,23.9,127.5,13.8,148.9-22c-1.5-2-3.1-3.9-4.8-5.7c-4.7-5.6-16.5-15.1-18.6-15.1
		c-0.6,0-2.4-0.9-3.8-2.1c-1.4-1.2-10.8-5.1-20.6-8.9s-21.8-8.9-26.2-11.4s-11-5-14.2-5.6c-3.2-0.6-7.5-2.1-9.5-3.4
		c-1.9-1.2-7.2-3.2-11.9-4.4c-22.2-5.9-82.9-32.9-107.5-47.7c-4.9-3-9.2-5.4-9.9-5.4s-4.6-1.6-9-3.5
		C429.5-96.3,428.9-96.5,428.4-96.7z"/>

		<radialGradient id="path62089_1_" cx="-5.5084" cy="-432.7233" r="95.0359" gradientTransform="matrix(0.9409 3.6975 1.71 -0.4351 794.0734 170.6202)" gradientUnits="userSpaceOnUse">
		<stop  offset="0" style="stop-color:#000000"/>
		<stop  offset="0.5" style="stop-color:#000000;stop-opacity:0.6087"/>
		<stop  offset="1" style="stop-color:#000000;stop-opacity:0"/>
	</radialGradient>
	<path id="path62089" class="st4" d="M68.1,173.5c-9.9,42.4-30.9,93.2-42.4,119.6
		c1,0.1,2,0.7,3.8,2c3.4,2.6,5.9,6.1,8.2,12.2C75.2,234.2,68.1,173.5,68.1,173.5z M99.5,198.8c-13,43.8-35.5,88.1-56.6,124.1
		c1.6,5.1,3.6,11,5.5,16l5.2,15v2.9C80.9,283,99.5,198.8,99.5,198.8z M135.2,306.8c0,0-27.9,56.1-77.9,120.9
		c0.6,5.1,1.1,10.3,1.4,13.5c0.6,9.4,0.4,11.4-2.6,24.4l-2.6,11.2C104.6,402.3,135.2,306.8,135.2,306.8z M153.5,308.5
		c0,0-46.5,120.6-98,210.3c-0.6,5.1-1.6,11.6-3.2,21.6c-2.1,13.2-7.4,48.2-11.5,77.8c-0.8,5.2-1.8,12.2-2.6,18.2
		C67.1,567.2,135.1,399.7,153.5,308.5z"/>

		<radialGradient id="path62089-4_1_" cx="20.4537" cy="-212.129" r="95.0359" gradientTransform="matrix(-0.9409 3.6975 -1.71 -0.4351 234.5471 170.6205)" gradientUnits="userSpaceOnUse">
		<stop  offset="0" style="stop-color:#000000"/>
		<stop  offset="0.5" style="stop-color:#000000;stop-opacity:0.6087"/>
		<stop  offset="1" style="stop-color:#000000;stop-opacity:0"/>
	</radialGradient>
	<path id="path62089-4" class="st5" d="M558.8,173.5c9.9,42.4,30.9,93.2,42.4,119.6
		c-1,0.1-2,0.7-3.8,2.1c-3.4,2.6-5.9,6.1-8.2,12.2C551.8,234.2,558.8,173.5,558.8,173.5z M527.4,198.8c13,43.8,35.5,88.1,56.6,124.1
		c-1.6,5.1-3.6,11-5.5,16l-5.2,15v2.9C546.1,283,527.4,198.8,527.4,198.8z M491.8,306.8c0,0,27.9,56.1,77.8,120.9
		c-0.6,5.1-1.1,10.3-1.4,13.5c-0.6,9.4-0.4,11.4,2.6,24.4l2.6,11.2C522.2,402.3,491.8,306.8,491.8,306.8z M473.4,308.5
		c0,0,46.5,120.6,98.1,210.3c0.6,5.1,1.6,11.6,3.2,21.6c2.1,13.2,7.4,48.2,11.5,77.8c0.8,5.2,1.8,12.2,2.6,18.4
		C559.8,567.2,491.8,399.7,473.4,308.5z"/>
	<path id="path61714-2" class="st1" d="M600.9,292.5c0,0,0-125.3,19.9-209.5
		C614.2,105.7,600.9,292.5,600.9,292.5z"/>
	<path id="path61714-0-63" class="st1" d="M24.1,292.5c0,0,0-125.3-19.9-209.5
		C10.9,105.7,24.1,292.5,24.1,292.5z"/>

		<radialGradient id="path61810-3_3_" cx="172.8804" cy="-115.3153" r="64.3292" gradientTransform="matrix(-1.6839 -2.2295 -1.5006 1.1332 132.7995 736.194)" gradientUnits="userSpaceOnUse">
		<stop  offset="0" style="stop-color:#000000"/>
		<stop  offset="0.5" style="stop-color:#000000;stop-opacity:0.6087"/>
		<stop  offset="1" style="stop-color:#000000;stop-opacity:0"/>
	</radialGradient>
	<path id="path61810-3_1_" class="st6" d="M23.3,290.4L-39.8,88l8.5,11.7
		C-31.3,99.7,5.4,182.4,23.3,290.4z M20,294.1l-0.7,2.3l-74.7-139.3l-13.3-41.3C-68.6,115.7,15.7,284.5,20,294.1z M13.6,303.4
		L-72,201.1l-14.7-30L13.6,303.4z"/>
</g>
<g id="COLLAR">
	<g id="ROUND" class="st7">

			<radialGradient id="path61667_2_" cx="43.1593" cy="33.8265" r="113.3001" gradientTransform="matrix(1.5625 0 0 -0.5317 245.6886 -39.8597)" gradientUnits="userSpaceOnUse">
			<stop  offset="0" style="stop-color:#000000;stop-opacity:0.4435"/>
			<stop  offset="1" style="stop-color:#000000"/>
		</radialGradient>
		<path id="path61667" class="st8" d="M418.1-99.1c-1.9,0.6-4.9,1.9-8.1,3.4
			c-45.5,20.9-131.2,22.9-185.9,4.4c-4.8-1.6-10-3.6-11.8-4.6c-1.2-0.6-3-1.2-4.2-1.5c12.5,40.2,55.2,80.9,105.4,80.9
			C364.2-16.6,406.4-58.1,418.1-99.1z"/>
		<path id="path61667-2_1_"  class="st9" d="M194.2-93.3
			c14.1,48.1,62.5,83.5,120,83.5c57.8,0,106.4-35.9,120.1-84.3"/>
	</g>
	<g id="V_NECK" class="st7">
		<path id="path61667_1_" class="st10" d="M418.1-99.1c-1.9,0.6-4.9,1.9-8.1,3.4
			c-45.5,20.9-131.2,22.9-185.9,4.4c-4.8-1.6-10-3.6-11.8-4.6c-1.2-0.6-3-1.2-4.2-1.5C220.6-57.2,315,11.4,315,11.4
			S406.4-58.1,418.1-99.1z"/>
		<path id="path61667-2_5_"  class="st11" d="M434.4-94.1
			C420.6-45.7,315,33.4,315,33.4S208.4-45.2,194.2-93.3"/>
	</g>
	<g id="N_VECK_THICK" class="st7">
		<path class="st12" d="M194-93.6c0,0,9.2-3.4,13.6-3.9c0,0,11.4,37.9,107,109.2c0,0,96.3-76.3,103.8-110.8c0,0-0.2-1.8,6.2,1l9,3.8
			c0,0,1.2,35.8-118.2,128.2C315.5,33.9,215.3-34.6,194-93.6z"/>
	</g>
	<g id="N_VECK_THICK_HALF" class="st7">
		<path class="st12" d="M382-48.5c-30,30.7-67.3,60.2-67.3,60.2c-32.2-24-54.8-44.2-70.7-60.4v23.5c34,33.4,71.5,59.1,71.5,59.1
			C344,11.9,365.6-7,382-22.8V-48.5z"/>
	</g>
	<g id="V_NECK_FULL" class="st7">
		<path class="st12" d="M433.8-94.3l-9-3.8c-6.5-2.8-6.2-1-6.2-1c-3.9,17.9-31.7,47.1-57.6,71h-95.3c-50.8-45.5-58-69.4-58-69.4
			c-4.4,0.5-13.6,3.9-13.6,3.9c21.3,59,121.5,127.5,121.5,127.5C435-58.6,433.8-94.3,433.8-94.3z"/>
	</g>
	<g id="BUTTONS" class="st7">
		<rect x="299" y="-10.1" class="st9" width="31.5" height="121"/>
		<radialGradient id="SVGID_1_" cx="315.6667" cy="5.4" r="8.3333" gradientUnits="userSpaceOnUse">
			<stop  offset="0" style="stop-color:#000000;stop-opacity:0.4435"/>
			<stop  offset="1" style="stop-color:#000000"/>
		</radialGradient>
		<circle class="st13" cx="315.7" cy="5.4" r="8.3"/>
		<rect x="299" y="-10.1" class="st9" width="31.5" height="121"/>
		<radialGradient id="SVGID_2_" cx="315.6667" cy="5.4" r="8.3333" gradientUnits="userSpaceOnUse">
			<stop  offset="0" style="stop-color:#000000;stop-opacity:0.4435"/>
			<stop  offset="1" style="stop-color:#000000"/>
		</radialGradient>
		<circle class="st14" cx="315.7" cy="5.4" r="8.3"/>
	</g>
	<g id="GAP_COLLAR" class="st7">
		<path class="st12" d="M210.6-93.1l-1.4-4.1c-0.8-0.4-2-0.3-2-0.3c-1.5,0-3.8,0.8-3.8,0.8c-2.6,0.7-4.8,1.5-4.8,1.5
			c-3.1,1.1-4.4,1.8-4.4,1.8l0,0.1c0,0.2,0.1,0.3,0.1,0.5c13,43.5,54,76.5,104.4,82.1l0.6-17.7C257.5-33.3,223.3-59,210.6-93.1z"/>
		<path class="st12" d="M435.1-93.8c0,0.2-0.5,0.4-0.5,0.6c-13,43.5-54,76.5-104.4,82.1l-0.6-17.7c41.8-4.9,76.1-30.5,88.7-64.7
			l1.9-6.1c0.8-0.4,14.6,5.8,14.6,5.8"/>
	</g>
	<g id="FULL_COLLAR_ROUND" class="st7">
		<path class="st15" d="M433.9-94.5c0,0-13.8-6.5-14.6-6.1l-1.9,6.5c-12.7,36.1-46.9,63.3-88.7,68.5c-15.3,3.5-30.3,0.4-30.3,0.4
			c-41.8-5.2-76.1-32.3-88.7-68.5l-1.4-4.3c-0.8-0.4-2-0.3-2-0.3c-1.5,0-3.8,0.8-3.8,0.8c-2.6,0.7-4.8,1.6-4.8,1.6
			c-3.1,1.2-4.4,1.9-4.4,1.9l0,0.1c0,0.2,0.1,0.3,0.1,0.5c13,46,54,80.9,104.4,86.9c21.8,2.2,31.5-0.4,31.5-0.4
			c50.4-6,91.4-40.9,104.4-86.9c0-0.2,0.5-0.4,0.5-0.6L433.9-94.5z"/>
	</g>
	<g id="FULL_COLLAR_ROUND_THIN" class="st7">
		<path id="path61667-2_2_"  class="st16" d="M194.2-93.3
			c14.1,48.1,62.5,83.5,120,83.5c57.8,0,106.4-35.9,120.1-84.3"/>
	</g>
	<g id="GAP_COLLAR_ROUND_THIN_copy" class="st7">
		<path id="path61667-2_3_"  class="st16" d="M194.2-93.3
			C208.4-45.2,230-30.6,258-20.6"/>
		<path id="path61667-2_4_"  class="st16" d="M372.2-21.6
			c28-10,49.6-24.6,63.8-72.7"/>
	</g>
	<g id="FULL_COLLAR_ROUND_copy" class="st7">
		<path class="st17" d="M446.9-88.3c0,0-14.5-7.5-15.4-7.1l-2.8,7.5c-13.9,37.5-51.6,65.8-97.6,71.1c-16.9,3.6-33.3,0.4-33.3,0.4
			c-46-5.4-89.7-39.4-103.6-77l-12,5.5l0,0.1c0.1,0.2,0.1,0.4,0.2,0.5c14.3,47.8,59.4,84.1,114.8,90.3c23.9,2.3,34.6-0.4,34.6-0.4
			c55.4-6.2,100.5-42.5,114.8-90.3c0.1-0.2,0.5-0.4,0.6-0.6L446.9-88.3z"/>
	</g>
	<g id="FULL_COLLAR" class="st7">
		<polyline class="st18" points="381.2,-113.3 381.2,-76.6 243.4,-76.6 242.3,-112.9 381.2,-113.3 		"/>
		<polygon class="st19" points="246.2,-25 192.7,-11.9 191.3,-96 245.1,-113.6 		"/>
		<polygon class="st19" points="380.1,-25.4 433.9,-15.3 435,-96.4 381.2,-114 		"/>
	</g>
	<g id="FULL_COLLAR_3_STRIPES" class="st7">
		<g id="Layer_19" class="st20">
			<line class="st21" x1="195.3" y1="-97.3" x2="197.3" y2="-13.3"/>
			<line class="st21" x1="201" y1="-98.9" x2="203" y2="-14.9"/>
			<line class="st21" x1="206.7" y1="-100.3" x2="208.7" y2="-16.3"/>
		</g>
		<g id="Layer_19_copy" class="st20">
			<line class="st21" x1="431" y1="-97.6" x2="429" y2="-15.9"/>
			<line class="st21" x1="425.2" y1="-99.1" x2="423.3" y2="-16.6"/>
			<line class="st21" x1="419.7" y1="-101.6" x2="417.7" y2="-17.6"/>
		</g>
	</g>
</g>
</svg>
